<svg id="visual" viewBox="0 0 1600 200" width="1600" height="200" xmlns="http://www.w3.org/2000/svg" xmlns:xlink="http://www.w3.org/1999/xlink" version="1.1"><path d="M0 136L22.2 125.5C44.3 115 88.7 94 133.2 96.2C177.7 98.3 222.3 123.7 266.8 132.2C311.3 140.7 355.7 132.3 400 118.2C444.3 104 488.7 84 533.2 83.8C577.7 83.7 622.3 103.3 666.8 115.5C711.3 127.7 755.7 132.3 800 133C844.3 133.7 888.7 130.3 933.2 128.3C977.7 126.3 1022.3 125.7 1066.8 123.3C1111.3 121 1155.7 117 1200 119.7C1244.3 122.3 1288.7 131.7 1333.2 137.5C1377.7 143.3 1422.3 145.7 1466.8 142.3C1511.3 139 1555.7 130 1577.8 125.5L1600 121L1600 201L1577.8 201C1555.7 201 1511.3 201 1466.8 201C1422.3 201 1377.7 201 1333.2 201C1288.7 201 1244.3 201 1200 201C1155.7 201 1111.3 201 1066.8 201C1022.3 201 977.7 201 933.2 201C888.7 201 844.3 201 800 201C755.7 201 711.3 201 666.8 201C622.3 201 577.7 201 533.2 201C488.7 201 444.3 201 400 201C355.7 201 311.3 201 266.8 201C222.3 201 177.7 201 133.2 201C88.7 201 44.3 201 22.2 201L0 201Z" fill="#FEFEFE" stroke-linecap="round" stroke-linejoin="miter"></path></svg>