<svg id="visual" viewBox="0 0 1024 480" width="1024" height="480" xmlns="http://www.w3.org/2000/svg" xmlns:xlink="http://www.w3.org/1999/xlink" version="1.1"><path d="M0 339L24.3 326.3C48.7 313.7 97.3 288.3 146.2 291C195 293.7 244 324.3 292.8 340.2C341.7 356 390.3 357 439 352.3C487.7 347.7 536.3 337.3 585 337.8C633.7 338.3 682.3 349.7 731.2 351.5C780 353.3 829 345.7 877.8 331.7C926.7 317.7 975.3 297.3 999.7 287.2L1024 277L1024 481L999.7 481C975.3 481 926.7 481 877.8 481C829 481 780 481 731.2 481C682.3 481 633.7 481 585 481C536.3 481 487.7 481 439 481C390.3 481 341.7 481 292.8 481C244 481 195 481 146.2 481C97.3 481 48.7 481 24.3 481L0 481Z" fill="#E9899E" stroke-linecap="round" stroke-linejoin="miter"></path></svg>