<svg id="visual" viewBox="0 0 1024 480" width="1024" height="480" xmlns="http://www.w3.org/2000/svg" xmlns:xlink="http://www.w3.org/1999/xlink" version="1.1"><path d="M0 310L24.3 288.3C48.7 266.7 97.3 223.3 146.2 221.3C195 219.3 244 258.7 292.8 269.7C341.7 280.7 390.3 263.3 439 247.3C487.7 231.3 536.3 216.7 585 204C633.7 191.3 682.3 180.7 731.2 197C780 213.3 829 256.7 877.8 258.7C926.7 260.7 975.3 221.3 999.7 201.7L1024 182L1024 0L999.7 0C975.3 0 926.7 0 877.8 0C829 0 780 0 731.2 0C682.3 0 633.7 0 585 0C536.3 0 487.7 0 439 0C390.3 0 341.7 0 292.8 0C244 0 195 0 146.2 0C97.3 0 48.7 0 24.3 0L0 0Z" fill="#E9899E" stroke-linecap="round" stroke-linejoin="miter"></path></svg>