<svg id="visual" viewBox="0 0 1024 480" width="1024" height="480" xmlns="http://www.w3.org/2000/svg" xmlns:xlink="http://www.w3.org/1999/xlink" version="1.1"><path d="M0 139L24.3 151.7C48.7 164.3 97.3 189.7 146.2 187C195 184.3 244 153.7 292.8 137.8C341.7 122 390.3 121 439 125.7C487.7 130.3 536.3 140.7 585 140.2C633.7 139.7 682.3 128.3 731.2 126.5C780 124.7 829 132.3 877.8 146.3C926.7 160.3 975.3 180.7 999.7 190.8L1024 201L1024 0L999.7 0C975.3 0 926.7 0 877.8 0C829 0 780 0 731.2 0C682.3 0 633.7 0 585 0C536.3 0 487.7 0 439 0C390.3 0 341.7 0 292.8 0C244 0 195 0 146.2 0C97.3 0 48.7 0 24.3 0L0 0Z" fill="#FEFEFE" stroke-linecap="round" stroke-linejoin="miter"></path></svg>