<svg id="visual"  width="1600" height="200" xmlns="http://www.w3.org/2000/svg" xmlns:xlink="http://www.w3.org/1999/xlink" version="1.1"><path d="M0 801L26.7 783.7C53.3 766.3 106.7 731.7 160 732.2C213.3 732.7 266.7 768.3 320 789C373.3 809.7 426.7 815.3 480 813.2C533.3 811 586.7 801 640 784C693.3 767 746.7 743 800 731.5C853.3 720 906.7 721 960 731.8C1013.3 742.7 1066.7 763.3 1120 774.5C1173.3 785.7 1226.7 787.3 1280 784.5C1333.3 781.7 1386.7 774.3 1440 764C1493.3 753.7 1546.7 740.3 1573.3 733.7L1600 727L1600 901L1573.3 901C1546.7 901 1493.3 901 1440 901C1386.7 901 1333.3 901 1280 901C1226.7 901 1173.3 901 1120 901C1066.7 901 1013.3 901 960 901C906.7 901 853.3 901 800 901C746.7 901 693.3 901 640 901C586.7 901 533.3 901 480 901C426.7 901 373.3 901 320 901C266.7 901 213.3 901 160 901C106.7 901 53.3 901 26.7 901L0 901Z" fill="#FEFEFE" stroke-linecap="round" stroke-linejoin="miter"></path></svg>