<svg id="visual" viewBox="0 0 1024 480" width="1024" height="480" xmlns="http://www.w3.org/2000/svg" xmlns:xlink="http://www.w3.org/1999/xlink" version="1.1"><path d="M0 64L19 61.7C38 59.3 76 54.7 114 49C152 43.3 190 36.7 227.8 39.8C265.7 43 303.3 56 341.2 59.8C379 63.7 417 58.3 455 51.8C493 45.3 531 37.7 569 33.7C607 29.7 645 29.3 682.8 28.3C720.7 27.3 758.3 25.7 796.2 29.7C834 33.7 872 43.3 910 48.7C948 54 986 55 1005 55.5L1024 56L1024 0L1005 0C986 0 948 0 910 0C872 0 834 0 796.2 0C758.3 0 720.7 0 682.8 0C645 0 607 0 569 0C531 0 493 0 455 0C417 0 379 0 341.2 0C303.3 0 265.7 0 227.8 0C190 0 152 0 114 0C76 0 38 0 19 0L0 0Z" fill="#E9899E" stroke-linecap="round" stroke-linejoin="miter"></path></svg>