<svg id="visual" viewBox="0 0 1600 200" width="1600" height="200" xmlns="http://www.w3.org/2000/svg" xmlns:xlink="http://www.w3.org/1999/xlink" version="1.1"><path d="M0 134L22.2 130.5C44.3 127 88.7 120 133.2 116.2C177.7 112.3 222.3 111.7 266.8 113.7C311.3 115.7 355.7 120.3 400 129.7C444.3 139 488.7 153 533.2 156C577.7 159 622.3 151 666.8 147.8C711.3 144.7 755.7 146.3 800 141.8C844.3 137.3 888.7 126.7 933.2 121.7C977.7 116.7 1022.3 117.3 1066.8 120.8C1111.3 124.3 1155.7 130.7 1200 130.2C1244.3 129.7 1288.7 122.3 1333.2 126.5C1377.7 130.7 1422.3 146.3 1466.8 148.5C1511.3 150.7 1555.7 139.3 1577.8 133.7L1600 128L1600 201L1577.8 201C1555.7 201 1511.3 201 1466.8 201C1422.3 201 1377.7 201 1333.2 201C1288.7 201 1244.3 201 1200 201C1155.7 201 1111.3 201 1066.8 201C1022.3 201 977.7 201 933.2 201C888.7 201 844.3 201 800 201C755.7 201 711.3 201 666.8 201C622.3 201 577.7 201 533.2 201C488.7 201 444.3 201 400 201C355.7 201 311.3 201 266.8 201C222.3 201 177.7 201 133.2 201C88.7 201 44.3 201 22.2 201L0 201Z" fill="#E9899E" stroke-linecap="round" stroke-linejoin="miter"></path></svg>