<svg id="visual" viewBox="0 0 1600 900" width="1600" height="900" xmlns="http://www.w3.org/2000/svg" xmlns:xlink="http://www.w3.org/1999/xlink" version="1.1"><path d="M0 97L26.7 114.3C53.3 131.7 106.7 166.3 160 165.8C213.3 165.3 266.7 129.7 320 109C373.3 88.3 426.7 82.7 480 84.8C533.3 87 586.7 97 640 114C693.3 131 746.7 155 800 166.5C853.3 178 906.7 177 960 166.2C1013.3 155.3 1066.7 134.7 1120 123.5C1173.3 112.3 1226.7 110.7 1280 113.5C1333.3 116.3 1386.7 123.7 1440 134C1493.3 144.3 1546.7 157.7 1573.3 164.3L1600 171L1600 0L1573.3 0C1546.7 0 1493.3 0 1440 0C1386.7 0 1333.3 0 1280 0C1226.7 0 1173.3 0 1120 0C1066.7 0 1013.3 0 960 0C906.7 0 853.3 0 800 0C746.7 0 693.3 0 640 0C586.7 0 533.3 0 480 0C426.7 0 373.3 0 320 0C266.7 0 213.3 0 160 0C106.7 0 53.3 0 26.7 0L0 0Z" fill="#FEFEFE" stroke-linecap="round" stroke-linejoin="miter"></path></svg>