<svg id="visual" viewBox="0 0 1024 480" width="1024" height="480" xmlns="http://www.w3.org/2000/svg" xmlns:xlink="http://www.w3.org/1999/xlink" version="1.1"><path d="M0 168L24.3 189.7C48.7 211.3 97.3 254.7 146.2 256.7C195 258.7 244 219.3 292.8 208.3C341.7 197.3 390.3 214.7 439 230.7C487.7 246.7 536.3 261.3 585 274C633.7 286.7 682.3 297.3 731.2 281C780 264.7 829 221.3 877.8 219.3C926.7 217.3 975.3 256.7 999.7 276.3L1024 296L1024 481L999.7 481C975.3 481 926.7 481 877.8 481C829 481 780 481 731.2 481C682.3 481 633.7 481 585 481C536.3 481 487.7 481 439 481C390.3 481 341.7 481 292.8 481C244 481 195 481 146.2 481C97.3 481 48.7 481 24.3 481L0 481Z" fill="#FEFEFE" stroke-linecap="round" stroke-linejoin="miter"></path></svg>