<svg id="visual" viewBox="0 0 1600 900" width="1600" height="900" xmlns="http://www.w3.org/2000/svg" xmlns:xlink="http://www.w3.org/1999/xlink" version="1.1"><path d="M0 148L29.7 160.7C59.3 173.3 118.7 198.7 178 193C237.3 187.3 296.7 150.7 355.8 140.5C415 130.3 474 146.7 533.2 168C592.3 189.3 651.7 215.7 711 228.8C770.3 242 829.7 242 889 242.7C948.3 243.3 1007.7 244.7 1066.8 236.8C1126 229 1185 212 1244.2 191C1303.3 170 1362.7 145 1422 137.3C1481.3 129.7 1540.7 139.3 1570.3 144.2L1600 149L1600 0L1570.3 0C1540.7 0 1481.3 0 1422 0C1362.7 0 1303.3 0 1244.2 0C1185 0 1126 0 1066.8 0C1007.7 0 948.3 0 889 0C829.7 0 770.3 0 711 0C651.7 0 592.3 0 533.2 0C474 0 415 0 355.8 0C296.7 0 237.3 0 178 0C118.7 0 59.3 0 29.7 0L0 0Z" fill="#e9899e" stroke-linecap="round" stroke-linejoin="miter"></path></svg>