<svg id="visual" viewBox="0 0 1600 900" width="1600" height="900" xmlns="http://www.w3.org/2000/svg" xmlns:xlink="http://www.w3.org/1999/xlink" version="1.1"><path d="M0 765L22.2 784.7C44.3 804.3 88.7 843.7 133.2 842C177.7 840.3 222.3 797.7 266.8 792.5C311.3 787.3 355.7 819.7 400 823.7C444.3 827.7 488.7 803.3 533.2 795.7C577.7 788 622.3 797 666.8 804C711.3 811 755.7 816 800 803.8C844.3 791.7 888.7 762.3 933.2 752.7C977.7 743 1022.3 753 1066.8 766C1111.3 779 1155.7 795 1200 810.2C1244.3 825.3 1288.7 839.7 1333.2 838C1377.7 836.3 1422.3 818.7 1466.8 809.2C1511.3 799.7 1555.7 798.3 1577.8 797.7L1600 797L1600 901L1577.8 901C1555.7 901 1511.3 901 1466.8 901C1422.3 901 1377.7 901 1333.2 901C1288.7 901 1244.3 901 1200 901C1155.7 901 1111.3 901 1066.8 901C1022.3 901 977.7 901 933.2 901C888.7 901 844.3 901 800 901C755.7 901 711.3 901 666.8 901C622.3 901 577.7 901 533.2 901C488.7 901 444.3 901 400 901C355.7 901 311.3 901 266.8 901C222.3 901 177.7 901 133.2 901C88.7 901 44.3 901 22.2 901L0 901Z" fill="#e9899e" stroke-linecap="round" stroke-linejoin="miter"></path></svg>