<svg id="visual" viewBox="0 0 1600 200" width="1600" height="200" xmlns="http://www.w3.org/2000/svg" xmlns:xlink="http://www.w3.org/1999/xlink" version="1.1"><path d="M0 123L26.7 114.2C53.3 105.3 106.7 87.7 160 79C213.3 70.3 266.7 70.7 320 76.7C373.3 82.7 426.7 94.3 480 94.8C533.3 95.3 586.7 84.7 640 90.5C693.3 96.3 746.7 118.7 800 130C853.3 141.3 906.7 141.7 960 131.3C1013.3 121 1066.7 100 1120 85C1173.3 70 1226.7 61 1280 65.3C1333.3 69.7 1386.7 87.3 1440 87.8C1493.3 88.3 1546.7 71.7 1573.3 63.3L1600 55L1600 0L1573.3 0C1546.7 0 1493.3 0 1440 0C1386.7 0 1333.3 0 1280 0C1226.7 0 1173.3 0 1120 0C1066.7 0 1013.3 0 960 0C906.7 0 853.3 0 800 0C746.7 0 693.3 0 640 0C586.7 0 533.3 0 480 0C426.7 0 373.3 0 320 0C266.7 0 213.3 0 160 0C106.7 0 53.3 0 26.7 0L0 0Z" fill="#E9899E" stroke-linecap="round" stroke-linejoin="miter"></path></svg>